<svg width="16" height="21" viewBox="0 0 16 21" fill="none" xmlns="http://www.w3.org/2000/svg">
<path fill-rule="evenodd" clip-rule="evenodd" d="M6.50666 0.508036C6.68839 0.298945 6.97057 0.207052 7.24057 0.269038C10.8494 1.09755 12.6735 5.05217 12.2445 8.5903C12.0778 9.96568 11.6658 11.0439 11.0592 11.9018C11.0555 11.9071 11.0517 11.9123 11.048 11.9175C11.1858 11.8498 11.3129 11.7767 11.4319 11.6995C12.0238 11.3153 12.4583 10.8083 13.0239 10.1481C13.0923 10.0683 13.1626 9.98629 13.2353 9.90196C13.3987 9.71247 13.6459 9.61695 13.8942 9.64729C14.1426 9.67764 14.3595 9.82985 14.4725 10.0531C14.97 11.0363 15.25 12.1479 15.25 13.3226C15.25 17.3267 12.0041 20.5726 8 20.5726C3.99594 20.5726 0.75 17.3267 0.75 13.3226C0.75 10.7856 2.05371 8.5535 4.02431 7.25906L4.09187 7.19098C4.12658 7.15601 4.16464 7.12454 4.20552 7.09703C5.07138 6.5144 5.69312 6.03786 6.11171 5.47743C6.50713 4.94801 6.75 4.3022 6.75 3.32264C6.75 2.59736 6.61608 1.90512 6.37229 1.26809C6.27327 1.00936 6.32494 0.717126 6.50666 0.508036ZM8.17122 2.25081C8.22313 2.60079 8.25 2.95872 8.25 3.32264C8.25 4.59106 7.92229 5.55995 7.31349 6.37505C6.74173 7.14054 5.95028 7.72847 5.10466 8.2999L5.03236 8.37275C4.99362 8.41179 4.95071 8.44644 4.90439 8.4761C3.30648 9.49913 2.25 11.2877 2.25 13.3226C2.25 16.4983 4.82436 19.0726 8 19.0726C11.1756 19.0726 13.75 16.4983 13.75 13.3226C13.75 12.8028 13.6812 12.2997 13.5523 11.8217C13.1721 12.2334 12.7524 12.6307 12.2485 12.9577C11.3253 13.5569 10.1699 13.899 8.5 13.899C8.15775 13.899 7.85891 13.6673 7.77364 13.3358C7.68838 13.0044 7.83833 12.6572 8.13811 12.4921C8.81692 12.1181 9.39232 11.661 9.83445 11.0357C10.2757 10.4118 10.6137 9.57875 10.7555 8.40975C11.0623 5.879 10.0149 3.38107 8.17122 2.25081Z" fill="#FF2021"/>
</svg>
