<svg width="20" height="20" viewBox="0 0 20 20" fill="none" xmlns="http://www.w3.org/2000/svg">
<path fill-rule="evenodd" clip-rule="evenodd" d="M4.76954 1.08151C8.21766 0.696136 11.7824 0.696136 15.2305 1.08151C17.1289 1.29369 18.6601 2.78947 18.8829 4.69452C19.2952 8.21952 19.2952 11.7806 18.8829 15.3056C18.6601 17.2106 17.1289 18.7064 15.2305 18.9186C11.7824 19.304 8.21766 19.304 4.76954 18.9186C2.87114 18.7064 1.33995 17.2106 1.11713 15.3056C0.704852 11.7806 0.704852 8.21952 1.11713 4.69452C1.33995 2.78947 2.87114 1.29369 4.76954 1.08151ZM14.4106 6.98009L15.25 6.17716L15.2493 6.00003H12.3476L10.2794 11.1602L7.92657 6.00068H4.88285V6.17716L5.86356 7.35779C5.91097 7.40047 5.94765 7.45373 5.97062 7.51325C5.99359 7.57276 6.0022 7.63685 5.99575 7.70032V12.3414C6.00982 12.4239 6.00431 12.5086 5.97965 12.5886C5.95499 12.6685 5.91188 12.7416 5.85379 12.8018L4.75 14.1401V14.3159H7.87708V14.1401L6.77394 12.8018C6.71538 12.7416 6.67128 12.6689 6.64499 12.5891C6.61871 12.5094 6.61091 12.4247 6.62221 12.3414V8.32808L9.36703 14.3165H9.68612L12.0435 8.32808V13.1014C12.0435 13.2277 12.0435 13.2525 11.9601 13.3358L11.1116 14.159V14.3348H15.2292V14.159L14.4106 13.3554C14.3752 13.3283 14.3478 13.2922 14.3314 13.2507C14.315 13.2093 14.3102 13.1642 14.3175 13.1203V7.21518C14.3102 7.17123 14.315 7.12614 14.3314 7.08472C14.3478 7.04331 14.3752 7.00714 14.4106 6.98009Z" fill="white"/>
</svg>
