<svg width="16" height="16" viewBox="0 0 16 16" fill="none" xmlns="http://www.w3.org/2000/svg">
<path d="M7.95085 0.78125C6.27726 0.792647 4.65963 1.38521 3.37469 2.45757C2.08974 3.52992 1.21733 5.01544 0.906695 6.65998C0.596058 8.30453 0.866499 10.0059 1.67176 11.4731C2.47701 12.9403 3.76704 14.082 5.32117 14.7031C5.21671 14.0196 5.21671 13.3242 5.32117 12.6406L6.17195 9.03125C6.03731 8.70437 5.97064 8.35349 5.97601 8C5.97601 6.99969 6.55867 6.24688 7.28054 6.24688C7.41131 6.24491 7.54097 6.27123 7.66062 6.32404C7.78027 6.37685 7.8871 6.4549 7.97377 6.55284C8.06045 6.65078 8.12493 6.7663 8.16281 6.89148C8.20068 7.01667 8.21105 7.14856 8.1932 7.27813C8.1932 7.67702 8.03033 8.2045 7.85933 8.75832C7.76508 9.06356 7.66836 9.37681 7.59507 9.68094C7.55068 9.84056 7.5454 10.0085 7.57968 10.1706C7.61397 10.3327 7.6868 10.4842 7.79202 10.6122C7.89724 10.7401 8.03174 10.8409 8.18415 10.9059C8.33656 10.9708 8.50238 10.9982 8.66757 10.9855C9.94632 10.9855 10.9363 9.62937 10.9363 7.68031C10.9492 7.28425 10.8793 6.88986 10.7313 6.5223C10.5832 6.15473 10.3601 5.82207 10.0763 5.54553C9.79249 5.26899 9.45415 5.05464 9.08287 4.91616C8.71158 4.77768 8.31551 4.71811 7.91992 4.74125C7.49757 4.72311 7.07593 4.79086 6.68052 4.94039C6.28511 5.08993 5.92416 5.31815 5.61951 5.61123C5.31486 5.90431 5.07284 6.25616 4.90812 6.64549C4.74339 7.03481 4.65938 7.45351 4.66117 7.87625C4.65543 8.46517 4.83589 9.04084 5.17679 9.52109C5.20158 9.54865 5.21924 9.58185 5.22823 9.61781C5.23721 9.65376 5.23726 9.69137 5.22835 9.72734C5.17161 9.95433 5.04788 10.4493 5.02726 10.5472C5.00663 10.6452 4.91898 10.707 4.78491 10.6452C3.88257 10.2223 3.32054 8.9075 3.32054 7.84531C3.32054 5.57141 4.9757 3.47797 8.09007 3.47797C10.5909 3.47797 12.5399 5.26203 12.5399 7.64937C12.5399 10.1347 10.993 12.1353 8.79132 12.1353C8.46855 12.1465 8.14809 12.077 7.85903 11.9329C7.56998 11.7888 7.3215 11.5748 7.13617 11.3103L6.68757 13.0273C6.47253 13.6946 6.17089 14.3308 5.79038 14.9197C6.49152 15.1269 7.21979 15.2277 7.95085 15.2188C9.86539 15.2188 11.7015 14.4582 13.0553 13.1044C14.4091 11.7506 15.1696 9.91453 15.1696 8C15.1696 6.08547 14.4091 4.24935 13.0553 2.89557C11.7015 1.54179 9.86539 0.78125 7.95085 0.78125Z" fill="white"/>
</svg>
