<svg width="24" height="24" viewBox="0 0 24 24" fill="none" xmlns="http://www.w3.org/2000/svg">
<path d="M16.57 22C16.8356 22.0015 17.0988 21.9501 17.3443 21.8488C17.5898 21.7475 17.8127 21.5984 18 21.41L20.71 18.7C20.8962 18.5126 21.0008 18.2592 21.0008 17.995C21.0008 17.7308 20.8962 17.4774 20.71 17.29L16.71 13.29C16.5226 13.1037 16.2692 12.9992 16.005 12.9992C15.7408 12.9992 15.4873 13.1037 15.3 13.29L13.7 14.88C12.5922 14.5846 11.5663 14.0409 10.7 13.29C9.95109 12.4223 9.4076 11.3968 9.10997 10.29L10.7 8.68999C10.8862 8.50263 10.9908 8.24917 10.9908 7.98499C10.9908 7.7208 10.8862 7.46735 10.7 7.27999L6.69997 3.27999C6.51261 3.09374 6.25916 2.9892 5.99497 2.9892C5.73079 2.9892 5.47733 3.09374 5.28997 3.27999L2.58997 5.99999C2.4016 6.18723 2.25242 6.41012 2.15112 6.65564C2.04982 6.90116 1.99844 7.1644 1.99997 7.42999C2.0907 11.2723 3.62605 14.9393 6.29997 17.7C9.06069 20.3739 12.7277 21.9093 16.57 22V22ZM5.99997 5.40999L8.58997 7.99999L7.29997 9.28999C7.17779 9.40444 7.0863 9.54773 7.03389 9.70672C6.98147 9.86571 6.96981 10.0353 6.99997 10.2C7.37374 11.8704 8.16508 13.4186 9.29997 14.7C10.5803 15.8363 12.129 16.6279 13.8 17C13.9621 17.0339 14.1302 17.027 14.289 16.9798C14.4479 16.9327 14.5925 16.8469 14.71 16.73L16 15.41L18.59 18L16.59 20C13.2737 19.9146 10.1095 18.5911 7.71997 16.29C5.41288 13.8995 4.08558 10.7311 3.99997 7.40999L5.99997 5.40999ZM20 11H22C22.0259 9.81099 21.8108 8.62905 21.3677 7.5254C20.9246 6.42174 20.2626 5.41923 19.4217 4.57828C18.5807 3.73733 17.5782 3.07535 16.4746 2.63224C15.3709 2.18913 14.189 1.97406 13 1.99999V3.99999C13.9279 3.96789 14.8525 4.127 15.7163 4.46742C16.5801 4.80785 17.3646 5.32231 18.0211 5.97883C18.6777 6.63535 19.1921 7.41989 19.5325 8.28369C19.873 9.14749 20.0321 10.0721 20 11Z" fill="white"/>
<path d="M13 8C15.1 8 16 8.9 16 11H18C18 7.78 16.22 6 13 6V8Z" fill="white"/>
</svg>
