<svg width="16" height="13" viewBox="0 0 16 13" fill="none" xmlns="http://www.w3.org/2000/svg">
<path d="M15.3573 1.67043C15.4008 1.60985 15.3366 1.53163 15.267 1.55858C14.773 1.75008 14.2567 1.87928 13.73 1.94295C14.3164 1.59261 14.769 1.0593 15.0199 0.4279C15.0455 0.36358 14.9752 0.306141 14.9146 0.339601C14.3696 0.640604 13.7818 0.857351 13.1712 0.98218C13.1456 0.987405 13.1193 0.978703 13.1013 0.959769C12.6431 0.476262 12.0399 0.154336 11.3823 0.0430888C10.711 -0.0704949 10.0209 0.041969 9.42033 0.362842C8.81977 0.683715 8.34269 1.19485 8.06392 1.81608C7.79886 2.40675 7.72734 3.06518 7.85807 3.69753C7.86822 3.74659 7.82981 3.79291 7.77981 3.78981C6.59177 3.71602 5.43099 3.40002 4.36898 2.86085C3.30967 2.32304 2.37163 1.57487 1.61197 0.662472C1.57826 0.621979 1.51436 0.62722 1.48979 0.673834C1.25342 1.12238 1.12965 1.62233 1.12999 2.13045C1.12903 2.63624 1.25315 3.13441 1.49131 3.58062C1.72946 4.02683 2.07425 4.40723 2.49499 4.68795C2.0488 4.67581 1.6113 4.5655 1.21343 4.36551C1.16215 4.33973 1.10065 4.37643 1.10331 4.43376C1.13434 5.10068 1.37918 5.77023 1.80298 6.28392C2.25397 6.83058 2.87993 7.20468 3.57499 7.34295C3.30743 7.42438 3.02965 7.46731 2.74999 7.47045C2.59778 7.46867 2.44588 7.45744 2.29514 7.43683C2.23925 7.42919 2.19362 7.48228 2.21318 7.53519C2.42049 8.09581 2.78674 8.58499 3.2683 8.94207C3.78314 9.32383 4.40417 9.53561 5.04499 9.54795C3.96289 10.3994 2.6269 10.8641 1.24999 10.868C1.10851 10.8684 0.967088 10.8638 0.826002 10.8542C0.746495 10.8488 0.709929 10.9547 0.778461 10.9954C2.12004 11.7915 3.65343 12.2124 5.21749 12.2104C6.37226 12.2224 7.51784 12.0042 8.58733 11.5685C9.65681 11.1328 10.6288 10.4884 11.4464 9.67282C12.264 8.85728 12.911 7.88699 13.3494 6.81863C13.7879 5.75027 14.009 4.60525 14 3.45045V3.09058C14 3.0669 14.0112 3.04463 14.0301 3.03036C14.5388 2.64626 14.9862 2.18768 15.3573 1.67043Z" fill="white"/>
</svg>
