<svg width="22" height="16" viewBox="0 0 22 16" fill="none" xmlns="http://www.w3.org/2000/svg">
<path fill-rule="evenodd" clip-rule="evenodd" d="M5.98888 0.89055C9.32455 0.629582 12.6755 0.629582 16.0112 0.89055L18.2519 1.06585C19.5 1.16349 20.521 2.09889 20.7273 3.33366C21.2435 6.42316 21.2435 9.5769 20.7273 12.6664C20.521 13.9012 19.5 14.8366 18.2519 14.9342L16.0112 15.1095C12.6755 15.3705 9.32455 15.3705 5.98888 15.1095L3.74818 14.9342C2.50011 14.8366 1.47909 13.9012 1.27278 12.6664C0.756568 9.5769 0.756568 6.42316 1.27278 3.33366C1.47909 2.09889 2.50011 1.16349 3.74818 1.06585L5.98888 0.89055ZM9 10.4702V5.52989C9 5.2967 9.25439 5.15267 9.45435 5.27264L13.5713 7.74278C13.7655 7.8593 13.7655 8.14076 13.5713 8.25728L9.45435 10.7274C9.25439 10.8474 9 10.7034 9 10.4702Z" fill="white"/>
</svg>
