<svg width="28" height="28" viewBox="0 0 28 28" fill="none" xmlns="http://www.w3.org/2000/svg">
<path d="M14 12.6667C13.6464 12.6667 13.3072 12.8072 13.0572 13.0573C12.8071 13.3073 12.6667 13.6465 12.6667 14.0001V19.3334C12.6667 19.687 12.8071 20.0262 13.0572 20.2762C13.3072 20.5263 13.6464 20.6667 14 20.6667C14.3536 20.6667 14.6928 20.5263 14.9428 20.2762C15.1929 20.0262 15.3333 19.687 15.3333 19.3334V14.0001C15.3333 13.6465 15.1929 13.3073 14.9428 13.0573C14.6928 12.8072 14.3536 12.6667 14 12.6667ZM14.5067 7.44008C14.182 7.30672 13.8179 7.30672 13.4933 7.44008C13.3297 7.50354 13.1801 7.59869 13.0533 7.72008C12.9356 7.84968 12.8409 7.9985 12.7733 8.16008C12.6987 8.31832 12.6622 8.49185 12.6667 8.66675C12.6656 8.84222 12.6993 9.01617 12.7656 9.17862C12.832 9.34107 12.9298 9.48883 13.0533 9.61341C13.1829 9.73119 13.3317 9.82589 13.4933 9.89342C13.6953 9.9764 13.9146 10.0085 14.1319 9.9869C14.3492 9.96529 14.5579 9.89064 14.7396 9.76951C14.9213 9.64837 15.0705 9.48446 15.174 9.29218C15.2775 9.09989 15.3322 8.88513 15.3333 8.66675C15.3284 8.31373 15.1903 7.97559 14.9467 7.72008C14.8199 7.59869 14.6703 7.50354 14.5067 7.44008ZM14 0.666748C11.3629 0.666748 8.78505 1.44873 6.59239 2.91382C4.39974 4.37891 2.69077 6.46129 1.6816 8.89764C0.672434 11.334 0.408389 14.0149 0.922859 16.6013C1.43733 19.1877 2.70721 21.5635 4.57191 23.4282C6.43661 25.2929 8.81238 26.5627 11.3988 27.0772C13.9852 27.5917 16.6661 27.3276 19.1024 26.3185C21.5388 25.3093 23.6212 23.6003 25.0863 21.4077C26.5513 19.215 27.3333 16.6372 27.3333 14.0001C27.3333 12.2491 26.9885 10.5153 26.3184 8.89764C25.6483 7.27996 24.6662 5.81011 23.4281 4.57199C22.19 3.33388 20.7201 2.35175 19.1024 1.68169C17.4848 1.01162 15.751 0.666748 14 0.666748ZM14 24.6667C11.8903 24.6667 9.82804 24.0412 8.07391 22.8691C6.31979 21.697 4.95262 20.0311 4.14528 18.082C3.33795 16.133 3.12671 13.9882 3.53829 11.9191C3.94986 9.84999 4.96576 7.94937 6.45752 6.45761C7.94928 4.96585 9.8499 3.94995 11.919 3.53837C13.9882 3.1268 16.1329 3.33803 18.082 4.14537C20.031 4.9527 21.6969 6.31987 22.869 8.074C24.0411 9.82812 24.6667 11.8904 24.6667 14.0001C24.6667 16.8291 23.5429 19.5422 21.5425 21.5426C19.5421 23.5429 16.829 24.6667 14 24.6667Z" fill="#669BBC"/>
</svg>
