<svg width="22" height="18" viewBox="0 0 22 18" fill="none" xmlns="http://www.w3.org/2000/svg">
<path d="M4.85557 3.83962C4.62315 3.71446 4.34204 3.72072 4.11541 3.85608C3.88878 3.99145 3.75 4.23599 3.75 4.49997V14C3.75 14.4142 4.08579 14.75 4.5 14.75C4.91421 14.75 5.25 14.4142 5.25 14V5.75563L10.6444 8.66032C10.8664 8.77985 11.1336 8.77985 11.3556 8.66032L16.75 5.75563V14C16.75 14.4142 17.0858 14.75 17.5 14.75C17.9142 14.75 18.25 14.4142 18.25 14V4.49997C18.25 4.23599 18.1112 3.99145 17.8846 3.85608C17.658 3.72072 17.3769 3.71446 17.1444 3.83962L11 7.14815L4.85557 3.83962Z" fill="white"/>
<path fill-rule="evenodd" clip-rule="evenodd" d="M16.3106 0.721805C12.7773 0.405883 9.22277 0.405883 5.68943 0.721805L4.17208 0.857473C2.54447 1.003 1.2294 2.24642 0.993006 3.86334C0.495007 7.26965 0.495007 10.7303 0.993006 14.1366C1.2294 15.7535 2.54447 16.9969 4.17208 17.1425L5.68943 17.2781C9.22277 17.5941 12.7773 17.5941 16.3106 17.2781L17.8279 17.1425C19.4556 16.9969 20.7706 15.7535 21.007 14.1366C21.505 10.7303 21.505 7.26965 21.007 3.86334C20.7706 2.24642 19.4556 1.003 17.8279 0.857473L16.3106 0.721805ZM5.82301 2.21584C9.26747 1.90787 12.7325 1.90787 16.177 2.21584L17.6944 2.35151C18.6305 2.43521 19.3868 3.15036 19.5228 4.08033C19.9998 7.34275 19.9998 10.6572 19.5228 13.9196C19.3868 14.8496 18.6305 15.5647 17.6944 15.6484L16.177 15.7841C12.7325 16.0921 9.26747 16.0921 5.82301 15.7841L4.30567 15.6484C3.36955 15.5647 2.61319 14.8496 2.47723 13.9196C2.00027 10.6572 2.00027 7.34275 2.47723 4.08033C2.61319 3.15036 3.36955 2.43521 4.30567 2.35151L5.82301 2.21584Z" fill="white"/>
</svg>
