<svg width="14" height="12" viewBox="0 0 14 12" fill="none" xmlns="http://www.w3.org/2000/svg">
<path fill-rule="evenodd" clip-rule="evenodd" d="M7.22725 0.111595C7.07155 0.067408 6.9073 0.0674487 6.75158 0.111765C6.42 0.206125 6.08528 0.293521 5.74941 0.381215C4.25056 0.77256 2.60024 1.20346 1.1885 2.35547L0.522887 2.89863C-0.00788786 3.33176 -0.00760864 4.18 0.523626 4.61269L1.17847 5.14605C1.66226 5.54009 2.16645 5.84832 2.68314 6.09968V9.06007C2.68314 9.78485 3.12776 10.4354 3.80303 10.6987L6.36117 11.696C6.772 11.8562 7.228 11.8562 7.63883 11.696L10.197 10.6987C10.8722 10.4354 11.3169 9.78485 11.3169 9.06007V6.10499C11.8301 5.85495 12.331 5.54829 12.8115 5.15616L12.9157 5.07114V8.23256C12.9157 8.49747 13.1304 8.71221 13.3954 8.71221C13.6603 8.71221 13.875 8.49747 13.875 8.23256V3.75582C13.8749 3.43553 13.742 3.11529 13.4764 2.89895L12.8215 2.36558C11.3995 1.20737 9.67985 0.758864 8.22741 0.380051C7.89226 0.292641 7.55823 0.205522 7.22725 0.111595ZM4.63317 6.19387C4.39025 6.08822 4.10768 6.19949 4.00202 6.44242C3.89636 6.68534 4.00764 6.96792 4.25056 7.07357C5.06779 7.42902 5.91374 7.71982 6.78069 7.94233C6.93176 7.9811 7.09022 7.98107 7.24131 7.94218C8.10592 7.71965 8.94937 7.42882 9.76399 7.07334C10.0068 6.96739 10.1177 6.68468 10.0118 6.44189C9.90582 6.19909 9.62311 6.08816 9.38031 6.19411C8.61504 6.52805 7.82279 6.80147 7.01069 7.01097C6.19611 6.80141 5.40119 6.52792 4.63317 6.19387Z" fill="#FF2021"/>
</svg>
